PathFileType	4	(X/Y/Z)	 s05c0403.trc
DataRate	CameraRate	NumFrames	NumMarkers	Units	OrigDataRate	OrigDataStartFrame	OrigNumFrames
200	200	4	49	mm	200	1501	2000
Frame#	Time	racr			lacr			c7			jug			rlel			rdr			llel			ldr			s2			lic			ric			lasi			rasi			rpsi			lpsi			rgt			lgt			rth1			rth2			rth3			rth4			rlfc			rsh1			rsh2			rsh3			rsh4			rlmal			rmmal			rcal			rtoe			rmt5			lth1			lth2			lth4			lth3			llfc			lmfc			lsh1			lsh2			lsh3			lsh4			llmal			lmmal			lcal			ltoe			lmt5			SBIKE			LBIKE			RBIKE			
		X1	Y1	Z1	X2	Y2	Z2	X3	Y3	Z3	X4	Y4	Z4	X5	Y5	Z5	X6	Y6	Z6	X7	Y7	Z7	X8	Y8	Z8	X9	Y9	Z9	X10	Y10	Z10	X11	Y11	Z11	X12	Y12	Z12	X13	Y13	Z13	X14	Y14	Z14	X15	Y15	Z15	X16	Y16	Z16	X17	Y17	Z17	X18	Y18	Z18	X19	Y19	Z19	X20	Y20	Z20	X21	Y21	Z21	X22	Y22	Z22	X23	Y23	Z23	X24	Y24	Z24	X25	Y25	Z25	X26	Y26	Z26	X27	Y27	Z27	X28	Y28	Z28	X29	Y29	Z29	X30	Y30	Z30	X31	Y31	Z31	X32	Y32	Z32	X33	Y33	Z33	X34	Y34	Z34	X35	Y35	Z35	X36	Y36	Z36	X37	Y37	Z37	X38	Y38	Z38	X39	Y39	Z39	X40	Y40	Z40	X41	Y41	Z41	X42	Y42	Z42	X43	Y43	Z43	X44	Y44	Z44	X45	Y45	Z45	X46	Y46	Z46	X47	Y47	Z47	X48	Y48	Z48	X49	Y49	Z49	
1501	7.5050	811.467205	1247.541372	-101.167401	788.707262	1330.661103	-391.075316	800.604196	1364.975971	-237.648097	743.425311	1209.861967	-268.416206	591.252284	1136.983239	80.064137	676.123688	961.178555	-36.643998	579.267946	1180.756428	-558.736925	689.975118	963.972543	-489.328997	192.860722	1246.198322	-264.400442	347.371417	1245.034437	-393.681409	334.750941	1212.980829	-116.377946	372.289022	1177.812089	-364.757447	358.911638	1151.571055	-148.917745	236.301226	1278.033429	-214.499809	244.744300	1288.775442	-299.649489	239.089382	1095.686243	-107.296197	271.895069	1153.663090	-438.635433	276.327334	980.831067	-88.222860	314.204719	900.186324	-88.300033	306.703999	812.747926	-97.419360	350.131292	906.968609	-95.129634	350.527942	671.930829	-121.053829	289.099375	582.058978	-91.781799	284.723131	493.947703	-103.245957	240.742789	420.544803	-107.091319	314.417211	488.179812	-128.124772	206.549387	290.081400	-116.648929	227.090303	314.037505	-194.163174	134.072075	274.953688	-164.204083	413.843702	175.173924	-144.793718	306.918854	181.847023	-84.899566	364.903776	1039.163711	-448.950879	439.922292	999.504141	-436.487908	461.991049	1022.724195	-416.556090	487.164837	922.103953	-434.499966	556.356172	797.094602	-396.357226	524.631049	788.051458	-290.631971	445.140480	747.417175	-430.188800	378.874819	690.672886	-425.349014	292.106870	673.028816	-432.999533	392.110394	663.274773	-401.091543	187.882756	614.854878	-439.598607	222.977341	611.289964	-361.031131	127.743772	655.123300	-399.119502	207.404481	371.632683	-385.587958	151.399909	461.680555	-454.892706	-163.814086	902.988565	-264.822153	-43.348729	85.400304	-474.576314	-51.683656	80.167914	-77.109826	
1502	7.5100	811.094754	1249.674465	-103.514860	788.780854	1330.830146	-393.724966	800.201997	1365.901327	-240.212058	743.243375	1210.892085	-270.553306	592.116882	1137.815815	78.901391	677.152745	960.994659	-36.638639	578.345011	1180.016535	-560.208145	690.033398	964.027709	-489.920313	192.554916	1244.067226	-261.568336	345.833648	1245.714379	-392.582933	336.512756	1209.765382	-115.421241	371.455682	1178.288405	-364.171325	360.403344	1148.813087	-148.421332	236.101927	1275.521565	-211.446855	243.272753	1287.610106	-296.778834	240.365496	1092.074672	-106.322127	271.067965	1154.246972	-437.709673	274.737320	977.596566	-87.721308	310.500005	895.768161	-87.940633	300.370877	808.668352	-97.441660	346.775964	902.185564	-94.691896	341.147645	667.279773	-121.291658	279.600106	577.559390	-91.771411	275.565615	489.417594	-103.244483	231.809952	415.895856	-107.208054	305.458792	483.620828	-127.952822	198.568202	285.347085	-116.852299	218.990896	309.212587	-194.251784	126.144230	270.888932	-164.265073	405.005499	168.234081	-144.905105	298.042181	176.001393	-85.097658	366.143158	1041.843008	-448.643337	442.171184	1003.928457	-436.371355	463.820934	1027.756998	-416.428418	491.326057	927.726006	-434.226420	563.416020	804.014243	-396.453082	532.084307	794.565979	-290.649377	452.547361	754.729062	-429.759953	386.498480	697.930022	-424.964312	299.656941	680.293941	-432.319371	399.688642	670.336014	-401.191844	195.062850	621.126232	-438.374357	230.353086	617.947185	-360.540898	134.551061	661.268716	-398.824473	217.277985	378.350668	-385.393254	160.359714	468.002006	-454.581178	-163.859675	902.948009	-264.883113	-43.395689	85.346521	-474.584952	-51.691275	80.182077	-77.117529	
1503	7.5150	811.057885	1251.365936	-105.765439	788.848895	1330.693756	-396.437542	799.658393	1366.721866	-242.974379	742.907386	1211.742485	-272.680454	592.988201	1138.739710	77.717092	678.352548	960.855814	-36.504215	577.302364	1179.187347	-561.767076	690.045799	964.095160	-490.447875	192.344159	1242.014557	-258.719688	344.137747	1246.409189	-391.183481	338.322937	1206.648921	-114.726029	370.589123	1178.767015	-363.627179	361.872408	1146.060927	-148.172232	236.264316	1272.972676	-208.977277	242.304407	1286.304104	-293.619124	241.512983	1088.848833	-105.710116	270.335008	1154.908360	-436.731228	272.962126	974.684831	-87.281937	306.950743	892.009401	-87.285084	294.398728	804.964443	-97.117157	342.697543	896.973723	-95.266342	332.008891	663.172441	-121.204294	270.263143	573.579850	-91.566374	266.370915	485.535912	-103.002152	222.772968	411.889934	-107.186262	296.473455	479.714203	-127.360806	190.430770	281.278511	-116.764659	210.917942	304.969713	-194.130712	118.021089	267.490730	-164.349462	395.854664	161.890964	-144.998094	288.911110	170.600771	-85.174207	367.297664	1044.608199	-448.406161	444.307895	1008.609130	-436.345325	465.425120	1033.028215	-416.350348	495.190501	933.571577	-434.217761	570.040794	811.337071	-396.749291	540.297035	801.369271	-289.463605	459.937248	761.907654	-429.354874	393.989880	704.965855	-424.712113	307.147609	687.261399	-431.863739	407.379326	677.148383	-401.264250	202.291866	627.083045	-437.721511	237.772748	624.246017	-360.051366	141.248677	666.495092	-398.470297	227.538342	384.745814	-385.180829	169.566223	473.763398	-454.315592	-163.835815	902.979345	-264.825487	-43.388183	85.328099	-474.595089	-51.713092	80.158486	-77.133854	
1504	7.5200	810.546303	1253.251277	-108.166281	788.936802	1330.227088	-399.172207	798.989362	1367.485343	-245.728741	742.252679	1212.319669	-274.604716	593.773806	1139.749159	76.453544	679.451353	960.726279	-36.407512	576.092824	1178.309169	-563.347909	689.900541	964.399676	-491.377555	192.126554	1240.016465	-255.780039	342.496009	1247.294555	-389.805290	340.238672	1203.863964	-113.685272	369.645810	1179.473315	-363.183548	362.338077	1142.839896	-151.215334	236.782822	1270.384074	-206.705386	241.356889	1285.123887	-290.477261	242.406205	1085.546330	-105.464748	269.694627	1155.756835	-435.684911	271.208794	972.018341	-86.803310	303.120374	888.618850	-86.933421	288.564767	801.826051	-96.485700	339.133275	892.665068	-94.937962	323.147814	659.573561	-120.837503	261.312522	570.289343	-91.130246	257.429501	482.208663	-102.553386	213.800447	408.553460	-106.908178	287.720488	476.430954	-126.732644	182.090180	277.917202	-116.608181	202.702750	301.495611	-193.862740	109.874759	265.041552	-164.185850	386.361734	155.845739	-145.143673	279.561148	165.699355	-85.349562	368.289001	1047.781902	-448.216327	446.413982	1013.397767	-436.001079	466.728435	1038.204423	-416.074084	498.823841	939.685328	-434.554167	576.516647	818.795795	-397.148173	546.671059	807.705339	-290.529735	467.230529	769.056742	-429.065432	401.538198	711.819250	-424.499613	314.739247	693.895999	-431.501970	415.117893	683.897363	-401.352943	209.678607	632.583308	-437.184148	245.304224	629.961812	-359.647820	148.007837	671.221725	-398.167064	238.219613	390.726851	-384.919516	179.164318	478.905002	-454.072937	-163.898191	902.962310	-264.806520	-43.388368	85.347624	-474.584517	-51.719860	80.161923	-77.112278	
